<svg xmlns="http://www.w3.org/2000/svg" width="600" height="600" viewBox="0 0 600 600" fill="none">
  <defs>
    <radialGradient id="glow" cx="0" cy="0" r="1" gradientUnits="userSpaceOnUse" gradientTransform="translate(300 300) scale(220)">
      <stop stop-color="#c7d2fe" stop-opacity="0.6" />
      <stop offset="1" stop-color="#ffffff" stop-opacity="0" />
    </radialGradient>
    <linearGradient id="helmet" x1="180" y1="40" x2="360" y2="280" gradientUnits="userSpaceOnUse">
      <stop stop-color="#f8fafc" />
      <stop offset="1" stop-color="#e2e8f0" />
    </linearGradient>
    <linearGradient id="suit" x1="210" y1="280" x2="360" y2="470" gradientUnits="userSpaceOnUse">
      <stop stop-color="#ffffff" />
      <stop offset="1" stop-color="#cbd5f5" />
    </linearGradient>
  </defs>
  <circle cx="300" cy="300" r="220" fill="url(#glow)" />
  <circle cx="100" cy="120" r="6" fill="#e2e8f0" />
  <circle cx="470" cy="120" r="8" fill="#c7d2fe" />
  <circle cx="520" cy="360" r="5" fill="#e2e8f0" />
  <circle cx="110" cy="420" r="7" fill="#c7d2fe" />
  <circle cx="420" cy="470" r="4" fill="#e2e8f0" />
  <g transform="translate(140 90)">
    <circle cx="160" cy="150" r="120" fill="url(#helmet)" stroke="#334155" stroke-width="6" />
    <circle cx="160" cy="150" r="80" fill="#0f172a" opacity="0.82" />
    <circle cx="130" cy="120" r="12" fill="#ffffff" opacity="0.7" />
    <rect x="88" y="260" width="144" height="170" rx="46" fill="url(#suit)" stroke="#334155" stroke-width="6" />
    <rect x="110" y="290" width="100" height="70" rx="20" fill="#e2e8f0" />
    <circle cx="125" cy="350" r="10" fill="#38bdf8" />
    <circle cx="160" cy="350" r="10" fill="#4f46e5" />
    <circle cx="195" cy="350" r="10" fill="#22c55e" />
    <rect x="40" y="300" width="70" height="24" rx="12" fill="#e2e8f0" stroke="#334155" stroke-width="4" />
    <rect x="210" y="300" width="70" height="24" rx="12" fill="#e2e8f0" stroke="#334155" stroke-width="4" />
    <rect x="120" y="430" width="80" height="40" rx="18" fill="#e2e8f0" stroke="#334155" stroke-width="4" />
  </g>
</svg>
